<?xml version="1.0"?>
<svg xmlns="http://www.w3.org/2000/svg" viewBox="0 0 64 64" width="512px" height="512px"><g id="Creative"><path d="M42.536,45.45a23,23,0,1,0-21.088-.009A2.925,2.925,0,0,1,23,48.066V50H22a1,1,0,0,0-1,1v6a1,1,0,0,0,1,1h3v1a3,3,0,0,0,3,3h8a3,3,0,0,0,3-3V58h3a1,1,0,0,0,1-1V51a1,1,0,0,0-1-1H41V48.068A2.946,2.946,0,0,1,42.536,45.45ZM37,59a1,1,0,0,1-1,1H28a1,1,0,0,1-1-1V58H37Zm4-3H23V52H41ZM21.786,31.287a11.471,11.471,0,0,1-1.462-3.515A1,1,0,0,0,19.35,27H16V23h3.35a1,1,0,0,0,.974-.772,11.471,11.471,0,0,1,1.462-3.515,1,1,0,0,0-.139-1.24L19.274,15.1,22.1,12.274l2.373,2.373a1,1,0,0,0,1.24.139,11.471,11.471,0,0,1,3.515-1.462A1,1,0,0,0,30,12.35V9h4v3.35a1,1,0,0,0,.772.974,11.471,11.471,0,0,1,3.515,1.462,1,1,0,0,0,1.24-.139L41.9,12.274,44.726,15.1l-2.373,2.373a1,1,0,0,0-.143,1.235,11.448,11.448,0,0,1,1.455,3.513A1,1,0,0,0,44.64,23H48v4H44.64a1,1,0,0,0-.975.779,11.448,11.448,0,0,1-1.455,3.513,1,1,0,0,0,.143,1.235L44.726,34.9,41.9,37.726l-2.373-2.373a1,1,0,0,0-1.241-.138A11.016,11.016,0,0,1,37,35.909V32.453a9,9,0,1,0-10,0v3.456a11.016,11.016,0,0,1-1.286-.694,1,1,0,0,0-1.241.138L22.1,37.726,19.274,34.9l2.373-2.373A1,1,0,0,0,21.786,31.287ZM32,28.75l-2.643-1.982L32,22.8l2.643,3.965Zm1,1.75L35,29V50H33Zm-.168-10.055a1.039,1.039,0,0,0-1.664,0l-4,6A1.006,1.006,0,0,0,27,27v2.889a7,7,0,1,1,10,0V27a1.006,1.006,0,0,0-.168-.555ZM29,29l2,1.5V50H29Zm8,21V38.063a13.285,13.285,0,0,0,1.66-.749l2.533,2.533a1,1,0,0,0,1.414,0l4.24-4.24a1,1,0,0,0,0-1.414l-2.535-2.536A13.484,13.484,0,0,0,45.414,29H49a1,1,0,0,0,1-1V22a1,1,0,0,0-1-1H45.414a13.545,13.545,0,0,0-1.1-2.657l2.535-2.536a1,1,0,0,0,0-1.414l-4.24-4.24a1,1,0,0,0-1.414,0L38.66,12.686A13.424,13.424,0,0,0,36,11.581V8a1,1,0,0,0-1-1H29a1,1,0,0,0-1,1v3.581a13.424,13.424,0,0,0-2.66,1.105l-2.533-2.533a1,1,0,0,0-1.414,0l-4.24,4.24a1,1,0,0,0,0,1.414l2.533,2.533A13.424,13.424,0,0,0,18.581,21H15a1,1,0,0,0-1,1v6a1,1,0,0,0,1,1h3.581a13.424,13.424,0,0,0,1.105,2.66l-2.533,2.533a1,1,0,0,0,0,1.414l4.24,4.24a1,1,0,0,0,1.414,0l2.533-2.533a13.285,13.285,0,0,0,1.66.749V50H25V48.066a4.915,4.915,0,0,0-2.633-4.4,21,21,0,1,1,19.251.007A4.9,4.9,0,0,0,39,48.068V50Z" fill="#FFFFFF"/><path d="M61,26H58a1,1,0,0,1,0-2h3a1,1,0,0,1,0,2Z" fill="#FFFFFF"/><path d="M57.114,19.271a1,1,0,0,1-.259-1.966l2.9-.777a1,1,0,1,1,.518,1.932l-2.9.776A.967.967,0,0,1,57.114,19.271Z" fill="#FFFFFF"/><path d="M54.518,13a1,1,0,0,1-.5-1.866l2.6-1.5a1,1,0,0,1,1,1.732l-2.6,1.5A1,1,0,0,1,54.518,13Z" fill="#FFFFFF"/><path d="M50.385,7.615a1,1,0,0,1-.707-1.707L51.8,3.787A1,1,0,1,1,53.213,5.2L51.092,7.322A1,1,0,0,1,50.385,7.615Z" fill="#FFFFFF"/><path d="M60.012,33.506a1.013,1.013,0,0,1-.259-.034l-2.9-.777a1,1,0,1,1,.518-1.931l2.9.776a1,1,0,0,1-.259,1.966Z" fill="#FFFFFF"/><path d="M57.114,40.5a.992.992,0,0,1-.5-.134l-2.6-1.5a1,1,0,1,1,1-1.732l2.6,1.5a1,1,0,0,1-.5,1.866Z" fill="#FFFFFF"/><path d="M52.506,46.506a1,1,0,0,1-.707-.293l-2.121-2.121a1,1,0,0,1,1.414-1.414L53.213,44.8a1,1,0,0,1-.707,1.707Z" fill="#FFFFFF"/><path d="M6,26H3a1,1,0,0,1,0-2H6a1,1,0,0,1,0,2Z" fill="#FFFFFF"/><path d="M6.886,19.271a.972.972,0,0,1-.259-.035l-2.9-.776a1,1,0,1,1,.518-1.932l2.9.777a1,1,0,0,1-.259,1.966Z" fill="#FFFFFF"/><path d="M9.482,13a1,1,0,0,1-.5-.134l-2.6-1.5a1,1,0,0,1,1-1.732l2.6,1.5A1,1,0,0,1,9.482,13Z" fill="#FFFFFF"/><path d="M13.615,7.615a1,1,0,0,1-.707-.293L10.787,5.2A1,1,0,1,1,12.2,3.787l2.121,2.121a1,1,0,0,1-.707,1.707Z" fill="#FFFFFF"/><path d="M3.988,33.506a1,1,0,0,1-.259-1.966l2.9-.776A1,1,0,1,1,7.145,32.7l-2.9.777A1.007,1.007,0,0,1,3.988,33.506Z" fill="#FFFFFF"/><path d="M6.886,40.5a1,1,0,0,1-.5-1.866l2.6-1.5a1,1,0,1,1,1,1.732l-2.6,1.5A.992.992,0,0,1,6.886,40.5Z" fill="#FFFFFF"/><path d="M11.494,46.506a1,1,0,0,1-.707-1.707l2.121-2.121a1,1,0,0,1,1.414,1.414L12.2,46.213A1,1,0,0,1,11.494,46.506Z" fill="#FFFFFF"/></g></svg>
