<?xml version="1.0"?>
<svg xmlns="http://www.w3.org/2000/svg" height="512px" viewBox="0 -50 512.001 512" width="512px"><path d="m292.03125 272.3125c-4.542969 0-8.660156-3.113281-9.746094-7.730469-1.265625-5.386719 2.074219-10.78125 7.460938-12.046875l.441406-.105468c5.390625-1.261719 10.785156 2.074218 12.046875 7.464843 1.269531 5.386719-2.074219 10.78125-7.460937 12.046875l-.441407.105469c-.769531.179687-1.539062.265625-2.300781.265625zm0 0" fill="#FFFFFF"/><path d="m313.242188 241.507812c-1.832032 0-3.6875-.503906-5.351563-1.558593-4.675781-2.960938-6.066406-9.148438-3.105469-13.824219 2.8125-4.4375 2.726563-16.449219 1.585938-23.414062-.898438-5.460938 2.804687-10.617188 8.265625-11.511719 5.460937-.898438 10.613281 2.808593 11.511719 8.265625.660156 4.03125 3.550781 24.777344-4.429688 37.378906-1.90625 3.015625-5.15625 4.664062-8.476562 4.664062zm0 0" fill="#FFFFFF"/><path d="m504.648438 199.261719c-15.65625-11.554688-53.953126-37.691407-105.515626-58.558594l46.492188-46.492187c.199219-.199219.382812-.410157.566406-.625.023438-.03125.050782-.054688.074219-.082032.246094-.300781.472656-.617187.683594-.941406.054687-.085938.105469-.179688.160156-.265625.148437-.253906.289063-.507813.417969-.769531.050781-.105469.105468-.214844.152344-.320313.132812-.300781.25-.605469.355468-.914062.015625-.050781.042969-.097657.058594-.148438l24.359375-77.101562c1.082031-3.429688.246094-7.175781-2.191406-9.820313-2.441407-2.640625-6.109375-3.773437-9.613281-2.964844l-82.449219 19.015626c-.070313.015624-.132813.042968-.199219.0625-.304688.074218-.601562.164062-.894531.269531-.105469.035156-.210938.070312-.316407.113281-.367187.144531-.730468.304688-1.078124.492188-.042969.023437-.082032.050781-.125.074218-.304688.167969-.597657.355469-.886719.558594-.097657.070312-.195313.144531-.296875.21875-.230469.175781-.453125.363281-.671875.558594-.085938.078125-.171875.148437-.253907.230468-.035156.035157-.078124.066407-.113281.101563l-90.097656 90.097656c-8.960937-.746093-18.058594-1.152343-27.265625-1.152343-.105469 0-.210938.003906-.316406.003906-.074219 0-.144532-.003906-.21875-.003906-.398438 0-.796875.011718-1.191406.015624-13.855469.074219-27.453126 1.050782-40.710938 2.75l-91.710938-91.710937c-.019531-.019531-.039062-.035156-.058593-.054687-.054688-.050782-.113281-.101563-.167969-.152344-.234375-.21875-.476562-.425782-.730469-.621094-.09375-.078125-.191406-.148438-.292969-.21875-.242187-.175781-.492187-.335938-.75-.488281-.089843-.050781-.171874-.109375-.261718-.160157-.34375-.1875-.699219-.355468-1.0625-.503906-.078125-.03125-.15625-.054687-.234375-.082031-.304688-.113281-.609375-.214844-.921875-.296875-.058594-.015625-.113282-.042969-.175782-.058594l-76.085937-19.015625c-3.386719-.847656-6.972656.132813-9.460937 2.582031-2.488282 2.449219-3.519532 6.019532-2.726563 9.417969l17.996094 77.101563c.015625.054687.035156.105468.050781.160156.082031.335938.183594.667969.304688 1 .023437.0625.042968.125.066406.1875.148437.386719.320312.761719.519531 1.128906.019531.042969.046875.082032.070313.121094.171874.308594.359374.605469.566406.894531.0625.089844.128906.179688.199218.269531.179688.238282.375.472657.582032.699219.070312.082031.140625.164063.21875.242188.03125.035156.0625.074219.097656.109375l51.453125 51.453125c-45.582031 19.886719-79.261719 42.9375-93.691406 53.597656-4.675781 3.445313-7.355469 8.753906-7.355469 14.5625 0 5.804687 2.679688 11.113281 7.351562 14.5625 15.328126 11.320313 52.367188 36.617187 102.316407 57.257813l-38.785157 38.785156c-9.648437 9.648437-14.964843 22.480468-14.964843 36.128906 0 13.644531 5.316406 26.476562 14.964843 36.128906 9.960938 9.960938 23.046876 14.941406 36.128907 14.941406 13.085937 0 26.167969-4.980468 36.132812-14.941406l22.554688-22.558594c.003906 0 .003906-.003906.003906-.003906l58.90625-58.90625c9.730469.933594 19.628906 1.460938 29.664063 1.515625.394531.003907.792968.015625 1.191406.015625.074218 0 .144531-.003906.21875-.003906.105468 0 .210937.003906.316406.003906 5.285156 0 10.535156-.140625 15.742188-.394531l57.765624 57.761719c0 .003906 0 .003906.003907.007812l22.5625 22.558594c9.652343 9.652344 22.480469 14.964844 36.128906 14.964844s26.480469-5.3125 36.128906-14.964844c9.648438-9.648438 14.964844-22.480469 14.964844-36.128906 0-13.648438-5.316406-26.476563-14.964844-36.128906l-22.554687-22.554688c-.003906-.003906-.003906-.003906-.007813-.003906l-11.453125-11.457032c56.003906-21.347656 97.800782-49.816406 114.332032-62.023437 4.671874-3.453125 7.351562-8.761719 7.351562-14.566406 0-5.804688-2.679688-11.113281-7.351562-14.5625zm-126.097657-66.324219c-7.226562-2.527344-14.660156-4.921875-22.285156-7.132812l53.246094-53.53125 14.855469 14.851562zm69.507813-109.207031-14.105469 44.640625-33.628906-33.632813zm-67.609375 19.480469 14.890625 14.890624-61.550782 61.882813c-8.242187-1.882813-16.664062-3.523437-25.238281-4.875zm-170.105469 111.019531c15.246094 0 27.652344 12.40625 27.652344 27.652343 0 15.25-12.40625 27.65625-27.652344 27.65625-15.25 0-27.65625-12.40625-27.65625-27.65625 0-5.039062 1.363281-9.765624 3.730469-13.839843.921875-1.390625 1.882812-2.75 2.886719-4.078125 5.078124-5.949219 12.621093-9.734375 21.039062-9.734375zm-95.578125-111.019531 74.433594 74.433593c-8.222657 1.625-16.285157 3.5-24.160157 5.582031l-65.144531-65.144531zm-62.597656-19.488282 42.996093 10.746094-32.824218 32.824219zm18.683593 63.402344 14.871094-14.871094 57.417969 57.421875c-7.542969 2.441407-14.875 5.042969-21.980469 7.761719zm-49.464843 126.703125c22.917969-16.644531 85-57.449219 163.484375-74.828125-4.0625 3.832031-7.808594 7.992188-11.203125 12.433594-1.554688 1.867187-2.96875 3.855468-4.226563 5.945312-10.675781 16.21875-16.902344 35.621094-16.902344 56.449219 0 29.449219 12.4375 56.050781 32.332032 74.828125-78.484375-17.378906-140.570313-58.183594-163.484375-74.828125zm93.316406 95.128906 15.421875-15.417969c7.269531 2.609376 14.757812 5.082032 22.445312 7.375l-22.984374 22.925782zm16.769531 71.0625-5.183594-5.609375c-3.757812-4.0625-10.09375-4.3125-14.160156-.554687-4.066406 3.753906-4.3125 10.09375-.558594 14.160156l2.550782 2.761719c-10.117188 2.363281-21.195313-.386719-29.066406-8.257813-5.863282-5.867187-9.09375-13.664062-9.09375-21.957031 0-8.296875 3.230468-16.09375 9.09375-21.957031l15.476562-15.476563 21.945312 21.945313v.003906h.003907l21.964843 21.964844zm27.144532-27.148437-14.863282-14.859375 31.183594-31.097657c8.042969 1.910157 16.265625 3.589844 24.636719 5zm96.984374-56.160156c-.136718 0-.273437-.003907-.410156-.003907-45.578125-.152343-82.613281-37.269531-82.613281-82.878906 0-.929687.042969-1.847656.070313-2.769531 8.734374 11.257812 22.378906 18.523437 37.695312 18.523437 26.296875 0 47.695312-21.398437 47.695312-47.695312 0-21.054688-13.71875-38.953125-32.679687-45.261719 9.257813-3.621094 19.3125-5.640625 29.832031-5.675781.136719 0 .273438-.003907.410156-.003907 45.640626.074219 82.75 37.222657 82.75 82.882813 0 45.65625-37.109374 82.808594-82.75 82.882813zm42.191407 17.359374c8.675781-1.097656 17.210937-2.503906 25.574219-4.171874l28.101562 28.101562-14.875 14.871094zm48.601562-9.488281c7.847657-2.066406 15.511719-4.339843 22.976563-6.765625l11.140625 11.140625-14.871094 14.871094zm48.289063 18.546875 15.476562 15.476563c5.863282 5.863281 9.09375 13.660156 9.09375 21.957031 0 8.292969-3.230468 16.09375-9.09375 21.957031-5.867187 5.867188-13.664062 9.09375-21.957031 9.09375s-16.09375-3.230469-21.957031-9.09375l-15.476563-15.476562 21.953125-21.949219s.003906-.003906.007813-.007812c0 0 .003906-.003907.003906-.007813zm-68.960938-34.160156c20.089844-18.792969 32.667969-45.523438 32.667969-75.140625 0-29.621094-12.578125-56.347656-32.667969-75.144531 79.148438 17.203125 141.835938 58.398437 164.890625 75.144531-23.054687 16.742187-85.742187 57.941406-164.890625 75.140625zm0 0" fill="#FFFFFF"/><path d="m93.453125 366.269531c-4.546875 0-8.664063-3.113281-9.746094-7.730469-1.269531-5.386718 2.074219-10.78125 7.460938-12.050781l.441406-.101562c5.390625-1.265625 10.78125 2.074219 12.046875 7.460937 1.265625 5.386719-2.074219 10.78125-7.460938 12.050782l-.441406.101562c-.773437.179688-1.542968.269531-2.300781.269531zm0 0" fill="#FFFFFF"/></svg>
