<svg id="icons" enable-background="new 0 0 64 64" height="512" viewBox="0 0 64 64" width="512" xmlns="http://www.w3.org/2000/svg"><path d="m10 56.002c3.691 0 6.914-2.017 8.646-5h17.108c2.42 3.091 6.172 5 10.241 5 5.259 0 9.986-3.189 11.993-8h4.012.001c.132 0 .258-.028.375-.076.042-.017.075-.048.115-.07.068-.04.137-.077.194-.132.037-.035.063-.08.094-.122.045-.057.09-.111.121-.179.023-.05.032-.104.047-.159.016-.055.042-.104.048-.162l1-10c.002-.018-.006-.033-.005-.051.001-.017.01-.031.01-.049 0-.052-.021-.097-.029-.146-.011-.066-.017-.132-.039-.194s-.058-.113-.091-.168-.063-.109-.105-.156c-.043-.048-.095-.083-.146-.122-.052-.038-.1-.077-.158-.105-.059-.029-.124-.042-.189-.059-.049-.013-.091-.039-.143-.044-.017-.001-.032.006-.049.005-.018 0-.033-.01-.051-.01h-6.058c-2.379-3.713-6.517-6-10.946-6-1.021 0-2.024.128-2.996.36v-8.359c0-.061-.024-.114-.035-.172-.011-.063-.008-.125-.031-.187l-4.48-11.647h.543c.553 0 1-.448 1-1s-.447-1-1-1h-19.997c-.553 0-1 .448-1 1v18.056c-1.021.053-2.025.171-2.998.381v-7.433c0-.552-.447-1-1-1h-.5v-3c0-.552-.447-1-1-1s-1 .448-1 1v3h-.5c-.553 0-1 .448-1 1v9.273c-5.949 3.212-10.002 9.504-10.002 16.727 0 5.514 4.486 10 10 10zm9.539-7c.299-.947.461-1.955.461-3 0-3.272-1.588-6.175-4.025-8h5.025v5c0 .553.447 1 1 1h7v3c0 .553.447 1 1 1h4.001c.143.342.297.676.467 1zm9.461-11v4h-6v-4zm32.895 0-.8 8h-26.353c-.004 0-.007 0-.01 0h-3.732v-8zm-19.75-2c1.171-.645 2.494-1 3.855-1 1.36 0 2.683.355 3.854 1zm10.079 12c-1.498 1.874-3.753 3-6.224 3s-4.726-1.126-6.225-3zm-6.228 6c-4.164 0-7.934-2.362-9.793-6h1.162c1.79 3.091 5.03 5 8.635 5s6.845-1.91 8.633-5h1.156c-1.859 3.638-5.63 6-9.793 6zm8.458-18h-1.334c-1.877-1.905-4.439-3-7.12-3-2.683 0-5.246 1.095-7.121 3h-1.343c2.071-2.494 5.166-4 8.46-4 3.293 0 6.387 1.506 8.458 4zm-13.454-13.813v8.817c-2.416 1.009-4.507 2.74-5.952 4.995h-15.048v-26.003h16.31zm-28.998-1.188h1v6.986c-.338.113-.671.236-1 .367zm5.998 8.052v2.949h-4c-.553 0-1 .448-1 1 0 .553.447 1 1 1h4v2h-7c-.071 0-.134.026-.201.041-.265-.021-.529-.041-.799-.041-2.253 0-4.328.758-6.002 2.021 2.715-5.083 7.937-8.614 14.002-8.97zm-15.959 16.133c.411-4.029 3.823-7.184 7.959-7.184 4.411 0 8 3.589 8 8s-3.589 8-8 8-8-3.589-8-8c0-.275.028-.544.041-.816z"/><path d="m10 52.002c3.309 0 6-2.691 6-6s-2.691-6-6-6-6 2.691-6 6 2.691 6 6 6zm0-10c2.206 0 4 1.794 4 4s-1.794 4-4 4-4-1.794-4-4 1.794-4 4-4z"/><path d="m22 34.006h10.998c.228 0 .447-.077.625-.22l5.002-4.004c.237-.19.375-.477.375-.781v-6.957c0-.007 0-.013 0-.02v-.021c0-.04-.018-.073-.022-.111-.009-.083-.011-.167-.042-.248l-3.848-10.001c-.002-.005-.007-.008-.009-.014-.031-.079-.084-.143-.134-.209-.027-.038-.046-.084-.079-.118-.043-.044-.1-.07-.15-.106-.055-.038-.104-.084-.165-.111-.038-.017-.084-.017-.125-.029-.084-.024-.168-.051-.257-.052-.005 0-.01-.003-.015-.003h-12.154c-.553 0-1 .448-1 1v21.004c0 .554.447 1.001 1 1.001zm10.647-2h-3.647v-19.004h4.468l3.532 9.183v6.336zm-9.647-19.004h4v19.004h-4z"/></svg>