<?xml version="1.0" encoding="iso-8859-1"?>
<!-- Generator: Adobe Illustrator 19.0.0, SVG Export Plug-In . SVG Version: 6.00 Build 0)  -->
<svg version="1.1" id="Capa_1" xmlns="http://www.w3.org/2000/svg" xmlns:xlink="http://www.w3.org/1999/xlink" x="0px" y="0px"
	 viewBox="0 0 512 512" style="enable-background:new 0 0 512 512;" xml:space="preserve">
<g>
	<g>
		<g>
			<path d="M486.4,59.733H25.6c-14.138,0-25.6,11.461-25.6,25.6v341.333c0,14.138,11.461,25.6,25.6,25.6h460.8
				c14.138,0,25.6-11.461,25.6-25.6V85.333C512,71.195,500.539,59.733,486.4,59.733z M494.933,426.667
				c0,4.713-3.82,8.533-8.533,8.533H25.6c-4.713,0-8.533-3.82-8.533-8.533V85.333c0-4.713,3.82-8.533,8.533-8.533h460.8
				c4.713,0,8.533,3.82,8.533,8.533V426.667z"/>
			<path d="M145.067,102.4c-56.554,0-102.4,45.846-102.4,102.4s45.846,102.4,102.4,102.4s102.4-45.846,102.4-102.4
				C247.406,148.271,201.595,102.461,145.067,102.4z M179.2,204.8c0,18.851-15.282,34.133-34.133,34.133
				s-34.133-15.282-34.133-34.133s15.282-34.133,34.133-34.133S179.2,185.949,179.2,204.8z M145.067,290.133
				c-45.439-0.039-82.878-35.679-85.153-81.061c-2.275-45.382,31.412-84.587,76.619-89.17v34.466
				c-25.726,4.316-44.095,27.284-42.65,53.33c1.445,26.046,22.24,46.842,48.286,48.286c26.046,1.445,49.014-16.924,53.33-42.651
				h34.466C225.534,256.91,188.868,290.078,145.067,290.133z M195.499,196.267c-3.664-21.44-20.459-38.234-41.899-41.899v-34.466
				c40.351,4.109,72.256,36.014,76.365,76.365H195.499z"/>
			<path d="M452.267,307.2H281.6c-9.426,0-17.067,7.641-17.067,17.067v68.267c0,9.426,7.641,17.067,17.067,17.067h170.667
				c9.426,0,17.067-7.641,17.067-17.067v-68.267C469.333,314.841,461.692,307.2,452.267,307.2z M281.6,392.533v-68.267h70.263
				l-40.96,68.267H281.6z M330.803,392.533l40.96-68.267h22.767l-40.96,68.267H330.803z M452.267,392.533H373.47l40.96-68.267
				h37.837V392.533z"/>
			<path d="M452.267,256h-102.4c-4.713,0-8.533,3.82-8.533,8.533s3.82,8.533,8.533,8.533h102.4c4.713,0,8.533-3.82,8.533-8.533
				S456.979,256,452.267,256z"/>
			<path d="M281.6,273.067h34.133c4.713,0,8.533-3.82,8.533-8.533s-3.82-8.533-8.533-8.533H281.6c-4.713,0-8.533,3.82-8.533,8.533
				S276.887,273.067,281.6,273.067z"/>
			<path d="M452.267,213.333h-34.133c-4.713,0-8.533,3.82-8.533,8.533s3.82,8.533,8.533,8.533h34.133
				c4.713,0,8.533-3.821,8.533-8.533S456.979,213.333,452.267,213.333z"/>
			<path d="M281.6,230.4H384c4.713,0,8.533-3.821,8.533-8.533s-3.82-8.533-8.533-8.533H281.6c-4.713,0-8.533,3.82-8.533,8.533
				S276.887,230.4,281.6,230.4z"/>
			<path d="M281.6,187.733h51.2c4.713,0,8.533-3.82,8.533-8.533s-3.821-8.533-8.533-8.533h-51.2c-4.713,0-8.533,3.82-8.533,8.533
				S276.887,187.733,281.6,187.733z"/>
			<path d="M409.6,145.067h42.667c4.713,0,8.533-3.82,8.533-8.533S456.979,128,452.267,128H409.6c-4.713,0-8.533,3.82-8.533,8.533
				S404.887,145.067,409.6,145.067z"/>
			<path d="M281.6,145.067h93.867c4.713,0,8.533-3.82,8.533-8.533S380.18,128,375.467,128H281.6c-4.713,0-8.533,3.82-8.533,8.533
				S276.887,145.067,281.6,145.067z"/>
			<path d="M213.333,392.533h-17.067v-17.067c0-4.713-3.82-8.533-8.533-8.533s-8.533,3.82-8.533,8.533v17.067h-17.067V332.8
				c0-4.713-3.821-8.533-8.533-8.533c-4.713,0-8.533,3.82-8.533,8.533v59.733H128V358.4c0-4.713-3.82-8.533-8.533-8.533
				s-8.533,3.82-8.533,8.533v34.133H93.867v-51.2c0-4.713-3.821-8.533-8.533-8.533s-8.533,3.82-8.533,8.533v51.2H59.733
				c-4.713,0-8.533,3.82-8.533,8.533s3.82,8.533,8.533,8.533h153.6c4.713,0,8.533-3.821,8.533-8.533
				S218.046,392.533,213.333,392.533z"/>
		</g>
	</g>
</g>
<g>
</g>
<g>
</g>
<g>
</g>
<g>
</g>
<g>
</g>
<g>
</g>
<g>
</g>
<g>
</g>
<g>
</g>
<g>
</g>
<g>
</g>
<g>
</g>
<g>
</g>
<g>
</g>
<g>
</g>
</svg>
