<svg height="480pt" viewBox="0 0 480 480" width="480pt" xmlns="http://www.w3.org/2000/svg"><path d="m464 416v-232c-.027344-22.082031-17.917969-39.972656-40-40h-8v-40c0-.175781-.089844-.328125-.105469-.503906-.039062-.699219-.175781-1.394532-.40625-2.054688-.089843-.257812-.152343-.503906-.265625-.753906-.386718-.871094-.929687-1.664062-1.597656-2.34375l-96-96c-.679688-.671875-1.476562-1.214844-2.351562-1.601562-.242188-.109376-.480469-.175782-.730469-.261719-.675781-.234375-1.378907-.375-2.09375-.417969-.136719.0273438-.28125-.0625-.449219-.0625h-208c-22.082031.0273438-39.972656 17.917969-40 40v104h-8c-22.082031.027344-39.972656 17.917969-40 40v232c-8.835938 0-16 7.164062-16 16v8c.0273438 22.082031 17.917969 39.972656 40 40h400c22.082031-.027344 39.972656-17.917969 40-40v-8c0-8.835938-7.164062-16-16-16zm-75.3125-320h-60.6875c-4.417969 0-8-3.582031-8-8v-60.6875zm-308.6875-56c0-13.253906 10.746094-24 24-24h200v72c0 13.253906 10.746094 24 24 24h72v272h-320zm-48 144c0-13.253906 10.746094-24 24-24h8v232c0 4.417969 3.582031 8 8 8h336c4.417969 0 8-3.582031 8-8v-232h8c13.253906 0 24 10.746094 24 24v232h-416zm432 256c0 13.253906-10.746094 24-24 24h-400c-13.253906 0-24-10.746094-24-24v-8h184c0 8.835938 7.164062 16 16 16h48c8.835938 0 16-7.164062 16-16h184zm0 0"/><path d="m184 144c-4.417969 0-8-3.582031-8-8h-16c.042969 10.132812 6.445312 19.148438 16 22.527344v9.472656h16v-9.472656c9.554688-3.378906 15.957031-12.394532 16-22.527344 0-12.945312-11.808594-18.847656-20.425781-23.160156-6.773438-3.382813-11.574219-6.007813-11.574219-8.839844 0-4.417969 3.582031-8 8-8s8 3.582031 8 8h16c-.042969-10.132812-6.445312-19.148438-16-22.527344v-9.472656h-16v9.472656c-9.554688 3.378906-15.957031 12.394532-16 22.527344 0 12.945312 11.808594 18.847656 20.425781 23.160156 6.773438 3.382813 11.574219 6.007813 11.574219 8.839844 0 4.417969-3.582031 8-8 8zm0 0"/><path d="m184 192c39.765625 0 72-32.234375 72-72s-32.234375-72-72-72-72 32.234375-72 72c.046875 39.746094 32.253906 71.953125 72 72zm0-128c30.929688 0 56 25.070312 56 56s-25.070312 56-56 56-56-25.070312-56-56c.035156-30.914062 25.085938-55.964844 56-56zm0 0"/><path d="m272 176h16v16h-16zm0 0"/><path d="m304 176h64v16h-64zm0 0"/><path d="m272 144h48v16h-48zm0 0"/><path d="m336 144h32v16h-32zm0 0"/><path d="m112 224h32v16h-32zm0 0"/><path d="m160 224h16v16h-16zm0 0"/><path d="m192 224h176v16h-176zm0 0"/><path d="m112 272h96v16h-96zm0 0"/><path d="m224 272h32v16h-32zm0 0"/><path d="m272 272h96v16h-96zm0 0"/><path d="m112 320h64v16h-64zm0 0"/><path d="m192 320h64v16h-64zm0 0"/><path d="m272 320h16v16h-16zm0 0"/><path d="m304 320h64v16h-64zm0 0"/></svg>