<?xml version="1.0" encoding="iso-8859-1"?>
<!-- Generator: Adobe Illustrator 19.0.0, SVG Export Plug-In . SVG Version: 6.00 Build 0)  -->
<svg version="1.1" id="Capa_1" xmlns="http://www.w3.org/2000/svg" xmlns:xlink="http://www.w3.org/1999/xlink" x="0px" y="0px"
	 viewBox="0 0 512.001 512.001" style="enable-background:new 0 0 512.001 512.001;" xml:space="preserve">
<g>
	<g>
		<path d="M480.006,362.668H309.339v21.333h156.117c-5.419,13.227-16.96,32-38.784,32c-5.891,0-10.667,4.776-10.667,10.667v64
			H213.339v-74.667c0-33.749-20.928-42.667-32-42.667h-64c-0.866,0.056-1.735,0.056-2.602,0
			c-11.064-0.719-19.45-10.27-18.732-21.333v-39.765c-0.002-3.051-1.31-5.956-3.595-7.979
			c-10.694-9.864-24.536-15.623-39.071-16.256c-0.044,0.005-0.088,0.01-0.133,0.015c-5.143,0.551-9.759-3.171-10.31-8.314
			l51.776-93.867c0.874-1.58,1.333-3.357,1.333-5.163v-20.671c0.088-76.547,62.12-138.578,138.667-138.667h85.333
			c75.733,0,142.549,58.667,148.853,128H234.672v21.333h245.333c5.891,0,10.667-4.776,10.667-10.667
			c0-85.227-79.755-160-170.667-160h-85.333c-88.324,0.1-159.9,71.676-160,160v17.931l-52,94.251
			c-0.873,1.577-1.331,3.35-1.333,5.152c-0.018,0.606-0.018,1.213,0,1.819c0.502,17.171,14.829,30.684,32,30.181
			c7.758,0.431,15.2,3.218,21.333,7.989v34.678c-0.024,0.808-0.024,1.617,0,2.425c0.67,22.895,19.772,40.911,42.667,40.242h63.691
			c1.835,0.117,10.976,1.696,10.976,21.333v85.333c0,5.891,4.776,10.667,10.667,10.667h224c5.891,0,10.667-4.776,10.667-10.667
			v-64.939c33.333-6.304,49.237-41.483,53.12-60.928c0.143-0.703,0.216-1.418,0.215-2.135
			C490.673,367.441,485.897,362.666,480.006,362.668z"/>
	</g>
</g>
<g>
	<g>
		<rect x="192.01" y="224.001" width="288" height="21.333"/>
	</g>
</g>
<g>
	<g>
		<rect x="266.67" y="298.671" width="213.33" height="21.333"/>
	</g>
</g>
<g>
	<g>
		<rect x="192.01" y="149.331" width="21.333" height="21.333"/>
	</g>
</g>
<g>
	<g>
		<rect x="149.34" y="224.001" width="21.333" height="21.333"/>
	</g>
</g>
<g>
	<g>
		<rect x="224.01" y="298.671" width="21.333" height="21.333"/>
	</g>
</g>
<g>
	<g>
		<rect x="266.67" y="362.671" width="21.333" height="21.333"/>
	</g>
</g>
<g>
</g>
<g>
</g>
<g>
</g>
<g>
</g>
<g>
</g>
<g>
</g>
<g>
</g>
<g>
</g>
<g>
</g>
<g>
</g>
<g>
</g>
<g>
</g>
<g>
</g>
<g>
</g>
<g>
</g>
</svg>
